<svg viewBox="0 0 1200 800" xmlns="http://www.w3.org/2000/svg">
  <!-- Red background -->
  <rect width="1200" height="800" fill="#B22234"/>
  
  <!-- White stripes -->
  <rect y="80" width="1200" height="45" fill="white"/>
  <rect y="675" width="1200" height="45" fill="white"/>
  
  <!-- Blue triangle -->
  <polygon points="0,0 0,800 380,400" fill="#3C3B6E"/>
  
  <!-- Stars -->
  <g fill="white">
    <!-- Column 1 -->
    <polygon points="55,175 60,188 74,188 63,196 68,209 55,201 42,209 47,196 36,188 50,188"/>
    <polygon points="55,285 60,298 74,298 63,306 68,319 55,311 42,319 47,306 36,298 50,298"/>
    <polygon points="55,395 60,408 74,408 63,416 68,429 55,421 42,429 47,416 36,408 50,408"/>
    <polygon points="55,505 60,518 74,518 63,526 68,539 55,531 42,539 47,526 36,518 50,518"/>
    <polygon points="55,615 60,628 74,628 63,636 68,649 55,641 42,649 47,636 36,628 50,628"/>
    
    <!-- Column 2 -->
    <polygon points="120,230 125,243 139,243 128,251 133,264 120,256 107,264 112,251 101,243 115,243"/>
    <polygon points="120,340 125,353 139,353 128,361 133,374 120,366 107,374 112,361 101,353 115,353"/>
    <polygon points="120,450 125,463 139,463 128,471 133,484 120,476 107,484 112,471 101,463 115,463"/>
    <polygon points="120,560 125,573 139,573 128,581 133,594 120,586 107,594 112,581 101,573 115,573"/>
    
    <!-- Column 3 -->
    <polygon points="185,285 190,298 204,298 193,306 198,319 185,311 172,319 177,306 166,298 180,298"/>
    <polygon points="185,395 190,408 204,408 193,416 198,429 185,421 172,429 177,416 166,408 180,408"/>
    <polygon points="185,505 190,518 204,518 193,526 198,539 185,531 172,539 177,526 166,518 180,518"/>
    
    <!-- Column 4 -->
    <polygon points="250,340 255,353 269,353 258,361 263,374 250,366 237,374 242,361 231,353 245,353"/>
    <polygon points="250,450 255,463 269,463 258,471 263,484 250,476 237,484 242,471 231,463 245,463"/>
  </g>
  
  <!-- Four chevrons -->
  <g fill="white">
    <polygon points="420,300 520,400 420,500 470,500 570,400 470,300"/>
    <polygon points="590,300 690,400 590,500 640,500 740,400 640,300"/>
    <polygon points="760,300 860,400 760,500 810,500 910,400 810,300"/>
    <polygon points="930,300 1030,400 930,500 980,500 1080,400 980,300"/>
  </g>
</svg>