<svg viewBox="0 0 1500 1000" xmlns="http://www.w3.org/2000/svg">
  <rect width="1500" height="1000" fill="white"/>
  <rect y="800" width="1500" height="200" fill="#C8102E"/>
  <polygon points="200,80 235,170 335,170 255,230 290,320 200,260 110,320 145,230 65,170 165,170" fill="#C8102E"/>
  <!-- Chevrons moved down to center vertically -->
  <path d="M650,500 L550,600 L550,560 L610,500 L550,440 L550,400 Z" fill="#C8102E"/>
  <path d="M800,500 L700,600 L700,560 L760,500 L700,440 L700,400 Z" fill="#C8102E"/>
  <path d="M950,500 L850,600 L850,560 L910,500 L850,440 L850,400 Z" fill="#C8102E"/>
</svg>
