<svg viewBox="0 0 1500 1000" xmlns="http://www.w3.org/2000/svg">
  <rect width="1500" height="1000" fill="white"/>
  <rect y="800" width="1500" height="200" fill="#C8102E"/>
  <polygon points="200,80 235,170 335,170 255,230 290,320 200,260 110,320 145,230 65,170 165,170" fill="#C8102E"/>
  <path d="M650,400 L550,500 L550,460 L610,400 L550,340 L550,300 Z" fill="#C8102E"/>
  <path d="M800,400 L700,500 L700,460 L760,400 L700,340 L700,300 Z" fill="#C8102E"/>
  <path d="M950,400 L850,500 L850,460 L910,400 L850,340 L850,300 Z" fill="#C8102E"/>
</svg>